<?xml version="1.0" encoding="UTF-8" standalone="no"?>
<svg
   width="16"
   height="16"
   version="1.1"
   id="svg8"
   sodipodi:docname="org.olliander.CounterPY-symbolic.svg"
   inkscape:version="1.1 (c68e22c387, 2021-05-23)"
   xmlns:inkscape="http://www.inkscape.org/namespaces/inkscape"
   xmlns:sodipodi="http://sodipodi.sourceforge.net/DTD/sodipodi-0.dtd"
   xmlns="http://www.w3.org/2000/svg"
   xmlns:svg="http://www.w3.org/2000/svg">
  <defs
     id="defs12" />
  <sodipodi:namedview
     id="namedview10"
     pagecolor="#ffffff"
     bordercolor="#666666"
     borderopacity="1.0"
     inkscape:pageshadow="2"
     inkscape:pageopacity="0.0"
     inkscape:pagecheckerboard="0"
     showgrid="false"
     inkscape:zoom="16.815883"
     inkscape:cx="4.757407"
     inkscape:cy="9.7824181"
     inkscape:window-width="1920"
     inkscape:window-height="1003"
     inkscape:window-x="0"
     inkscape:window-y="0"
     inkscape:window-maximized="1"
     inkscape:current-layer="svg8" />
  <path
     id="rect931"
     style="fill:none;stroke:#000000;stroke-width:0.978424"
     d="M 2.1430036,0.54863384 H 13.878681 c 0.889356,0 1.605336,0.71447636 1.605336,1.60196506 V 13.884932 c 0,0.887489 -0.71598,1.601964 -1.605336,1.601964 H 2.1430036 c -0.8893558,0 -1.60533529,-0.714475 -1.60533529,-1.601964 V 2.1505989 c 0,-0.8874887 0.71597949,-1.60196506 1.60533529,-1.60196506 z" />
  <g
     aria-label="3"
     id="text7329"
     style="font-size:13.3333px;line-height:1.25"
     transform="matrix(0.81294328,0,0,0.81294328,0.49180537,1.4557097)">
    <path
       d="m 5.1945908,12.815377 c 2.2666609,0 3.7866571,-1.066664 3.7866571,-2.693327 0,-1.1733299 -0.799998,-2.0666609 -2.0533281,-2.293327 0.9599975,-0.266666 1.559996,-1.0399974 1.559996,-2.0799948 0,-1.5066628 -1.2133302,-2.4533271 -3.0933255,-2.4533271 -1.0399974,0 -2.1199946,0.2933326 -3.0133257,0.799998 L 2.7679303,5.3753958 C 3.5945949,4.9887301 4.3812595,4.7753973 5.0479245,4.7753973 c 1.0133308,0 1.7066624,0.4666655 1.7066624,1.199997 0,0.8133313 -0.8266646,1.3599966 -2.0133283,1.3599966 H 4.0612603 v 1.3466632 h 0.799998 c 1.4399964,0 2.3599941,0.5466653 2.3599941,1.4266629 0,0.786665 -0.7466648,1.226664 -1.9599951,1.226664 -0.8133313,0 -1.7999954,-0.186666 -2.6133267,-0.559999 l -0.399999,1.359997 c 0.9466643,0.453332 1.9199951,0.679998 2.9466592,0.679998 z"
       style="font-weight:bold;font-family:Cantarell;-inkscape-font-specification:'Cantarell Bold'"
       id="path11665" />
  </g>
  <path
     style="fill:#000000;stroke:none;stroke-width:0.133095px;stroke-linecap:butt;stroke-linejoin:miter;stroke-opacity:1"
     d="M 11.284345,4.6487186 9.3321151,7.1081315 13.213496,7.0960608 Z"
     id="path28933"
     sodipodi:nodetypes="cccc" />
  <path
     style="fill:#000000;stroke:none;stroke-width:0.133095px;stroke-linecap:butt;stroke-linejoin:miter;stroke-opacity:1"
     d="M 11.284345,11.184797 9.3321151,8.7253843 13.213496,8.737455 Z"
     id="path11839"
     sodipodi:nodetypes="cccc" />
</svg>
