<?xml version="1.0" encoding="UTF-8" standalone="no"?>
<svg
   width="33.750061mm"
   height="33.750061mm"
   viewBox="0 0 33.750061 33.750061"
   version="1.1"
   id="svg974"
   sodipodi:docname="org.olliander.CounterPY.svg"
   inkscape:version="1.1 (c68e22c387, 2021-05-23)"
   xmlns:inkscape="http://www.inkscape.org/namespaces/inkscape"
   xmlns:sodipodi="http://sodipodi.sourceforge.net/DTD/sodipodi-0.dtd"
   xmlns="http://www.w3.org/2000/svg"
   xmlns:svg="http://www.w3.org/2000/svg"
   xmlns:rdf="http://www.w3.org/1999/02/22-rdf-syntax-ns#"
   xmlns:cc="http://creativecommons.org/ns#"
   xmlns:dc="http://purl.org/dc/elements/1.1/">
  <sodipodi:namedview
     id="namedview111"
     pagecolor="#ffffff"
     bordercolor="#666666"
     borderopacity="1.0"
     inkscape:pageshadow="2"
     inkscape:pageopacity="0.0"
     inkscape:pagecheckerboard="0"
     inkscape:document-units="mm"
     showgrid="false"
     inkscape:zoom="3.8944846"
     inkscape:cx="85.762312"
     inkscape:cy="72.795256"
     inkscape:window-width="1920"
     inkscape:window-height="1003"
     inkscape:window-x="0"
     inkscape:window-y="0"
     inkscape:window-maximized="1"
     inkscape:current-layer="svg974" />
  <defs
     id="defs968">
    <rect
       x="9.2139616"
       y="35.536343"
       width="69.974706"
       height="109.40629"
       id="rect5626" />
    <clipPath
       clipPathUnits="userSpaceOnUse"
       id="clipPath18689">
      <rect
         clip-path="none"
         transform="rotate(45)"
         ry="32.000008"
         rx="32.000008"
         y="123.9986"
         x="486.03726"
         height="362.94299"
         width="362.94299"
         id="rect18691"
         style="display:inline;opacity:1;vector-effect:none;fill:#4a86cf;fill-opacity:1;stroke:none;stroke-width:26.0669;stroke-linecap:butt;stroke-linejoin:miter;stroke-miterlimit:4;stroke-dasharray:none;stroke-dashoffset:0;stroke-opacity:1;marker:none;marker-start:none;marker-mid:none;marker-end:none;paint-order:normal;enable-background:new" />
    </clipPath>
    <clipPath
       clipPathUnits="userSpaceOnUse"
       id="clipPath18689-3">
      <rect
         clip-path="none"
         transform="rotate(45)"
         ry="32.000008"
         rx="32.000008"
         y="123.9986"
         x="486.03726"
         height="362.94299"
         width="362.94299"
         id="rect18691-6"
         style="display:inline;opacity:1;vector-effect:none;fill:#4a86cf;fill-opacity:1;stroke:none;stroke-width:26.0669;stroke-linecap:butt;stroke-linejoin:miter;stroke-miterlimit:4;stroke-dasharray:none;stroke-dashoffset:0;stroke-opacity:1;marker:none;marker-start:none;marker-mid:none;marker-end:none;paint-order:normal;enable-background:new" />
    </clipPath>
  </defs>
  <metadata
     id="metadata971">
    <rdf:RDF>
      <cc:Work
         rdf:about="">
        <dc:format>image/svg+xml</dc:format>
        <dc:type
           rdf:resource="http://purl.org/dc/dcmitype/StillImage" />
        <dc:title />
      </cc:Work>
    </rdf:RDF>
  </metadata>
  <g
     id="g29330"
     transform="translate(0.29430936,-0.37339339)">
    <rect
       style="fill:#000080;fill-rule:evenodd;stroke-width:0.288661"
       id="rect307"
       width="30.800968"
       height="29.774338"
       x="1.1875489"
       y="2.0498562"
       ry="4.525773" />
    <rect
       style="fill:#008eff;fill-opacity:1;fill-rule:evenodd;stroke-width:0.288661"
       id="rect511"
       width="30.800968"
       height="29.774338"
       x="1.2196126"
       y="3.0506513"
       ry="4.525773" />
    <rect
       style="fill:#ffdd55;fill-opacity:1;fill-rule:evenodd;stroke-width:0.124944"
       id="rect531"
       width="13.331907"
       height="12.88754"
       x="14.844348"
       y="11.316989"
       ry="1.958938" />
    <g
       aria-label="3"
       transform="matrix(0.21885765,0,0,0.21885765,2.170472,-3.0764123)"
       id="text5624"
       style="font-size:96px;line-height:1.25;white-space:pre;shape-inside:url(#rect5626);fill:#ffffff">
      <path
         d="m 27.881519,121.22128 c 12.69334,0 21.205344,-5.97334 21.205344,-15.08268 0,-6.570667 -4.480002,-11.573336 -11.498672,-12.84267 5.376002,-1.493334 8.736004,-5.824003 8.736004,-11.648006 0,-8.437337 -6.79467,-13.738673 -17.322675,-13.738673 -5.824003,0 -11.872006,1.642667 -16.874675,4.480002 l 2.165335,7.168004 c 4.629335,-2.165335 9.03467,-3.360002 12.768006,-3.360002 5.674669,0 9.557337,2.613335 9.557337,6.720003 0,4.554669 -4.629335,7.616004 -11.274672,7.616004 H 21.53485 v 7.541337 h 4.480002 c 8.064004,0 13.216006,3.061331 13.216006,7.989341 0,4.40533 -4.181335,6.86933 -10.976005,6.86933 -4.554669,0 -10.080005,-1.04533 -14.634674,-3.136 l -2.240001,7.616 c 5.301336,2.53867 10.752005,3.80801 16.501341,3.80801 z"
         style="font-weight:bold;font-size:74.6667px;font-family:Cantarell;-inkscape-font-specification:'Cantarell Bold'"
         id="path29301" />
    </g>
    <path
       id="rect24428"
       style="fill:#ffb52a;fill-opacity:1;fill-rule:evenodd;stroke-width:0.124944"
       d="m 16.803095,11.317139 c -1.085251,-10e-7 -1.958537,0.873285 -1.958537,1.958536 v 4.431254 h 13.331487 v -4.431254 c 0,-1.085251 -0.873286,-1.958536 -1.958539,-1.958536 z" />
    <path
       style="fill:#ffffff;stroke:none;stroke-width:0.165284px;stroke-linecap:butt;stroke-linejoin:miter;stroke-opacity:1"
       d="m 21.524124,12.880161 -2.33854,3.166296 4.649435,-0.01554 z"
       id="path28933"
       sodipodi:nodetypes="cccc" />
    <path
       style="fill:#ffffff;stroke:none;stroke-width:0.165284px;stroke-linecap:butt;stroke-linejoin:miter;stroke-opacity:1"
       d="m 21.524124,22.394787 -2.33854,-3.166296 4.649435,0.01554 z"
       id="path29299"
       sodipodi:nodetypes="cccc" />
  </g>
</svg>
